# xmcd
#
# Track frame offsets: 
#        150
#        18317
#        33217
#
# Disc length: 776 seconds
#
# Revision: 0
# Processed by: cddbd v1.5.2PL0 Copyright (c) Steve Scherf et al.
# Submitted via: ExactAudioCopy v0.99pb3
#
DISCID=16030603
DTITLE=D*Note - Say What You Mean [CD Single)
DYEAR=1998
DGENRE=R&B
TTITLE0=Say What You Mean (Mantronik Syntax Formula)
TTITLE1=Say What You Mean (Radio edit)
TTITLE2=Say What You Mean (Sunship's Selecta dub)
EXTD=
EXTT0=
EXTT1=
EXTT2=
PLAYORDER=
